<mxfile host="app.diagrams.net" modified="2022-03-31T02:35:14.925Z" agent="5.0 (Windows NT 10.0; Win64; x64) AppleWebKit/537.36 (KHTML, like Gecko) Chrome/99.0.4844.74 Safari/537.36 Edg/99.0.1150.55" etag="qHJQ0BRlcp2dcFYCuRA6" version="17.2.5" type="github">
  <diagram id="C5RBs43oDa-KdzZeNtuy" name="Page-1">
    <mxGraphModel dx="1038" dy="579" grid="1" gridSize="10" guides="1" tooltips="1" connect="1" arrows="1" fold="1" page="1" pageScale="1" pageWidth="827" pageHeight="1169" math="0" shadow="0">
      <root>
        <mxCell id="WIyWlLk6GJQsqaUBKTNV-0" />
        <mxCell id="WIyWlLk6GJQsqaUBKTNV-1" parent="WIyWlLk6GJQsqaUBKTNV-0" />
        <mxCell id="yQNON_OZt39_jxspAz_X-0" value="&lt;font style=&quot;font-size: 14px&quot;&gt;Data Server&lt;/font&gt;" style="rounded=1;whiteSpace=wrap;html=1;" vertex="1" parent="WIyWlLk6GJQsqaUBKTNV-1">
          <mxGeometry x="90" y="70" width="130" height="90" as="geometry" />
        </mxCell>
        <mxCell id="yQNON_OZt39_jxspAz_X-1" value="&lt;font style=&quot;font-size: 14px&quot;&gt;Write Server&lt;/font&gt;" style="rounded=1;whiteSpace=wrap;html=1;" vertex="1" parent="WIyWlLk6GJQsqaUBKTNV-1">
          <mxGeometry x="640" y="70" width="130" height="90" as="geometry" />
        </mxCell>
        <mxCell id="yQNON_OZt39_jxspAz_X-2" value="&lt;font style=&quot;font-size: 14px&quot;&gt;Game Server&lt;/font&gt;&amp;nbsp;&lt;br&gt;(colyseus server+coreGame)" style="rounded=1;whiteSpace=wrap;html=1;" vertex="1" parent="WIyWlLk6GJQsqaUBKTNV-1">
          <mxGeometry x="80" y="200" width="216" height="160" as="geometry" />
        </mxCell>
        <mxCell id="yQNON_OZt39_jxspAz_X-4" value="" style="rounded=0;whiteSpace=wrap;html=1;" vertex="1" parent="WIyWlLk6GJQsqaUBKTNV-1">
          <mxGeometry x="230" y="430" width="70" height="50" as="geometry" />
        </mxCell>
        <mxCell id="yQNON_OZt39_jxspAz_X-5" value="" style="rounded=0;whiteSpace=wrap;html=1;" vertex="1" parent="WIyWlLk6GJQsqaUBKTNV-1">
          <mxGeometry x="310" y="430" width="70" height="50" as="geometry" />
        </mxCell>
        <mxCell id="yQNON_OZt39_jxspAz_X-6" value="" style="rounded=0;whiteSpace=wrap;html=1;" vertex="1" parent="WIyWlLk6GJQsqaUBKTNV-1">
          <mxGeometry x="450" y="430" width="70" height="50" as="geometry" />
        </mxCell>
        <mxCell id="yQNON_OZt39_jxspAz_X-7" value="" style="rounded=0;whiteSpace=wrap;html=1;" vertex="1" parent="WIyWlLk6GJQsqaUBKTNV-1">
          <mxGeometry x="530" y="430" width="70" height="50" as="geometry" />
        </mxCell>
        <mxCell id="yQNON_OZt39_jxspAz_X-8" value="" style="rounded=0;whiteSpace=wrap;html=1;" vertex="1" parent="WIyWlLk6GJQsqaUBKTNV-1">
          <mxGeometry x="640" y="430" width="70" height="50" as="geometry" />
        </mxCell>
        <mxCell id="yQNON_OZt39_jxspAz_X-9" value="" style="rounded=0;whiteSpace=wrap;html=1;" vertex="1" parent="WIyWlLk6GJQsqaUBKTNV-1">
          <mxGeometry x="720" y="430" width="70" height="50" as="geometry" />
        </mxCell>
        <mxCell id="yQNON_OZt39_jxspAz_X-10" value="Simulation 1" style="rounded=1;whiteSpace=wrap;html=1;fontSize=14;" vertex="1" parent="WIyWlLk6GJQsqaUBKTNV-1">
          <mxGeometry x="330" y="220" width="120" height="60" as="geometry" />
        </mxCell>
        <mxCell id="yQNON_OZt39_jxspAz_X-11" value="Simulation 1" style="rounded=1;whiteSpace=wrap;html=1;fontSize=14;" vertex="1" parent="WIyWlLk6GJQsqaUBKTNV-1">
          <mxGeometry x="490" y="220" width="120" height="60" as="geometry" />
        </mxCell>
        <mxCell id="yQNON_OZt39_jxspAz_X-12" value="Simulation 1" style="rounded=1;whiteSpace=wrap;html=1;fontSize=14;" vertex="1" parent="WIyWlLk6GJQsqaUBKTNV-1">
          <mxGeometry x="640" y="220" width="120" height="60" as="geometry" />
        </mxCell>
        <mxCell id="yQNON_OZt39_jxspAz_X-13" value="" style="endArrow=classic;html=1;rounded=0;fontSize=14;" edge="1" parent="WIyWlLk6GJQsqaUBKTNV-1" target="yQNON_OZt39_jxspAz_X-2">
          <mxGeometry width="50" height="50" relative="1" as="geometry">
            <mxPoint x="260" y="430" as="sourcePoint" />
            <mxPoint x="310" y="380" as="targetPoint" />
          </mxGeometry>
        </mxCell>
        <mxCell id="yQNON_OZt39_jxspAz_X-14" value="" style="endArrow=classic;html=1;rounded=0;fontSize=14;" edge="1" parent="WIyWlLk6GJQsqaUBKTNV-1">
          <mxGeometry width="50" height="50" relative="1" as="geometry">
            <mxPoint x="310" y="430" as="sourcePoint" />
            <mxPoint x="276.4000000000001" y="360" as="targetPoint" />
          </mxGeometry>
        </mxCell>
        <mxCell id="yQNON_OZt39_jxspAz_X-15" value="" style="endArrow=classic;html=1;rounded=0;fontSize=14;entryX=0.969;entryY=0.974;entryDx=0;entryDy=0;entryPerimeter=0;" edge="1" parent="WIyWlLk6GJQsqaUBKTNV-1" target="yQNON_OZt39_jxspAz_X-2">
          <mxGeometry width="50" height="50" relative="1" as="geometry">
            <mxPoint x="474" y="430" as="sourcePoint" />
            <mxPoint x="440" y="360" as="targetPoint" />
          </mxGeometry>
        </mxCell>
        <mxCell id="yQNON_OZt39_jxspAz_X-16" value="" style="endArrow=classic;html=1;rounded=0;fontSize=14;" edge="1" parent="WIyWlLk6GJQsqaUBKTNV-1" target="yQNON_OZt39_jxspAz_X-2">
          <mxGeometry width="50" height="50" relative="1" as="geometry">
            <mxPoint x="554.7" y="430" as="sourcePoint" />
            <mxPoint x="370.0040000000001" y="355.84000000000003" as="targetPoint" />
          </mxGeometry>
        </mxCell>
        <mxCell id="yQNON_OZt39_jxspAz_X-17" value="" style="endArrow=classic;html=1;rounded=0;fontSize=14;entryX=0.306;entryY=1.004;entryDx=0;entryDy=0;entryPerimeter=0;exitX=0.36;exitY=0.996;exitDx=0;exitDy=0;exitPerimeter=0;" edge="1" parent="WIyWlLk6GJQsqaUBKTNV-1" source="yQNON_OZt39_jxspAz_X-8" target="yQNON_OZt39_jxspAz_X-2">
          <mxGeometry width="50" height="50" relative="1" as="geometry">
            <mxPoint x="564.7" y="440" as="sourcePoint" />
            <mxPoint x="306" y="334.1778020179984" as="targetPoint" />
            <Array as="points">
              <mxPoint x="665" y="540" />
              <mxPoint x="146" y="540" />
            </Array>
          </mxGeometry>
        </mxCell>
        <mxCell id="yQNON_OZt39_jxspAz_X-18" value="" style="endArrow=classic;html=1;rounded=0;fontSize=14;exitX=0.623;exitY=1.012;exitDx=0;exitDy=0;exitPerimeter=0;entryX=0.406;entryY=0.999;entryDx=0;entryDy=0;entryPerimeter=0;" edge="1" parent="WIyWlLk6GJQsqaUBKTNV-1" source="yQNON_OZt39_jxspAz_X-9" target="yQNON_OZt39_jxspAz_X-2">
          <mxGeometry width="50" height="50" relative="1" as="geometry">
            <mxPoint x="675.2" y="489.79999999999995" as="sourcePoint" />
            <mxPoint x="156.096" y="370.64" as="targetPoint" />
            <Array as="points">
              <mxPoint x="764" y="550" />
              <mxPoint x="156" y="550" />
            </Array>
          </mxGeometry>
        </mxCell>
        <mxCell id="yQNON_OZt39_jxspAz_X-19" value="" style="endArrow=classic;html=1;rounded=0;fontSize=14;entryX=0;entryY=0.5;entryDx=0;entryDy=0;exitX=1.002;exitY=0.324;exitDx=0;exitDy=0;exitPerimeter=0;" edge="1" parent="WIyWlLk6GJQsqaUBKTNV-1" source="yQNON_OZt39_jxspAz_X-2" target="yQNON_OZt39_jxspAz_X-10">
          <mxGeometry width="50" height="50" relative="1" as="geometry">
            <mxPoint x="296" y="260" as="sourcePoint" />
            <mxPoint x="346" y="210" as="targetPoint" />
          </mxGeometry>
        </mxCell>
      </root>
    </mxGraphModel>
  </diagram>
</mxfile>
